HIERARCHY
ROOT Hips
{
	OFFSET 0.000000 0.000000 0.000000
	CHANNELS 6 Xposition Yposition Zposition Zrotation Yrotation Xrotation 
	JOINT LowerBack
	{
		OFFSET 0.000000 0.000000 0.000000
		CHANNELS 3 Zrotation Yrotation Xrotation
		JOINT Spine
		{
			OFFSET 0.028270 2.035590 -0.193380
			CHANNELS 3 Zrotation Yrotation Xrotation
			JOINT Spine1
			{
				OFFSET 0.056720 2.048850 -0.042750
				CHANNELS 3 Zrotation Yrotation Xrotation
				JOINT Neck
				{
					OFFSET 0.000000 0.000000 0.000000
					CHANNELS 3 Zrotation Yrotation Xrotation
					JOINT Neck1
					{
						OFFSET -0.054170 1.746240 0.172020
						CHANNELS 3 Zrotation Yrotation Xrotation
						JOINT Head
						{
							OFFSET 0.104070 1.761360 -0.123970
							CHANNELS 3 Zrotation Yrotation Xrotation
							End Site
							{
								OFFSET 0.000000 0.000000 0.000000
							}
						}
					}
				}
				JOINT LeftShoulder
				{
					OFFSET 0.000000 0.000000 0.000000
					CHANNELS 3 Zrotation Yrotation Xrotation
					JOINT LeftArm
					{
						OFFSET 3.362410 1.200890 -0.311210
						CHANNELS 3 Zrotation Yrotation Xrotation
						JOINT LeftForeArm
						{
							OFFSET 4.983000 -0.000000 -0.000000
							CHANNELS 3 Zrotation Yrotation Xrotation
							JOINT LeftHand
							{
								OFFSET 3.483560 -0.000000 -0.000000
								CHANNELS 3 Zrotation Yrotation Xrotation
								JOINT LeftFingerBase
								{
									OFFSET 0.000000 0.000000 0.000000
									CHANNELS 3 Zrotation Yrotation Xrotation
									JOINT LeftHandIndex1
									{
										OFFSET 0.715260 -0.000000 -0.000000
										CHANNELS 3 Zrotation Yrotation Xrotation
										End Site
										{
											OFFSET 0.000000 0.000000 0.000000
										}
									}
								}
								JOINT LThumb
								{
									OFFSET 0.000000 0.000000 0.000000
									CHANNELS 3 Zrotation Yrotation Xrotation
									End Site
									{
										OFFSET 0.000000 0.000000 0.000000
									}
								}
							}
						}
					}
				}
				JOINT RightShoulder
				{
					OFFSET 0.000000 0.000000 0.000000
					CHANNELS 3 Zrotation Yrotation Xrotation
					JOINT RightArm
					{
						OFFSET -3.136600 1.374050 -0.404650
						CHANNELS 3 Zrotation Yrotation Xrotation
						JOINT RightForeArm
						{
							OFFSET -5.241900 -0.000000 -0.000000
							CHANNELS 3 Zrotation Yrotation Xrotation
							JOINT RightHand
							{
								OFFSET -3.444170 -0.000000 -0.000000
								CHANNELS 3 Zrotation Yrotation Xrotation
								JOINT RightFingerBase
								{
									OFFSET 0.000000 0.000000 0.000000
									CHANNELS 3 Zrotation Yrotation Xrotation
									JOINT RightHandIndex1
									{
										OFFSET -0.622530 -0.000000 -0.000000
										CHANNELS 3 Zrotation Yrotation Xrotation
										End Site
										{
											OFFSET 0.000000 0.000000 0.000000
										}
									}
								}
								JOINT RThumb
								{
									OFFSET 0.000000 0.000000 0.000000
									CHANNELS 3 Zrotation Yrotation Xrotation
									End Site
									{
										OFFSET 0.000000 0.000000 0.000000
									}
								}
							}
						}
					}
				}
			}
		}
	}
}
}
MOTION
Frames: 7
Frame Time: 0.008333
2.751966 16.830817 1.130029 -174.327762 -45.485978 -152.896664 3.261792 -6.628315 0.410094 0.780805 -6.786398 -2.953223 -4.777167 -6.922420 -0.700229 19.868361 -14.151985 -5.356536 -1.114675 -0.113377 0.576182 0.000000 0.000000 0.000000 29.693902 -13.403320 3.869695 20.108687 -6.286956 -41.473302 -1.896904 -0.675454 -0.084550 15.235014 -4.079347 -0.652476 -0.831910 0.539518 -0.000000 0.000000 0.000000 0.000000 0.000000 0.000000 0.000000 15.265738 -14.356754 -2.732668 52.024203 54.401439 4.975904 -178.503744 63.419791 179.728980 -24.880116 11.294055 -2.745719 0.465470 -0.876728 0.000000 0.000000 0.000000 0.000000 0.000000 0.000000 0.000000 
2.744677 16.825120 1.127334 -174.217263 -45.471334 -152.917274 3.715126 -6.815289 0.445870 0.907457 -6.993395 -2.864374 -4.691023 -7.118477 -0.376195 19.329969 -14.220821 -5.578759 -1.092782 -0.107203 0.506942 0.000000 0.000000 0.000000 29.045582 -11.611397 3.949560 21.476858 -9.911192 -48.594915 -1.249138 0.169660 -0.104666 17.842066 -4.956742 -0.914732 -0.891804 0.586314 -0.000000 0.000000 0.000000 0.000000 0.000000 0.000000 0.000000 14.489097 -14.446694 -3.004682 53.121790 54.364751 5.843399 -178.464515 63.370892 179.731344 -24.693594 11.416082 -2.751776 0.458669 -0.876328 0.000000 0.000000 0.000000 0.000000 0.000000 0.000000 0.000000 
2.738191 16.817718 1.119174 -174.096372 -45.323347 -152.923023 4.058906 -6.950162 0.440826 1.008409 -7.143107 -2.722547 -4.632546 -7.241963 0.163628 18.896583 -14.391831 -5.996487 -1.055945 -0.096307 0.380429 0.000000 0.000000 0.000000 28.972931 -8.834842 4.056677 22.940325 -14.895822 -57.849806 -0.397459 1.803252 -0.114017 20.053949 -8.312379 -1.673210 -0.921141 0.720456 -0.000000 0.000000 0.000000 0.000000 0.000000 0.000000 0.000000 13.904338 -14.609381 -3.332149 53.983720 54.545738 6.563585 -178.411894 63.243145 179.734074 -24.481328 11.598148 -2.767839 0.450612 -0.876514 -0.000000 0.000000 0.000000 0.000000 0.000000 0.000000 0.000000 
2.732919 16.809418 1.105196 -173.966918 -45.081950 -152.907350 4.225608 -7.010291 0.403235 1.056979 -7.210331 -2.538092 -4.651611 -7.269111 0.873837 18.681424 -14.638146 -6.573651 -1.008641 -0.081704 0.208264 0.000000 0.000000 0.000000 29.724344 -5.518410 4.225974 24.580862 -20.527305 -67.843414 0.469783 4.116425 -0.110128 21.202735 -13.600641 -2.844769 -0.903585 0.911950 -0.000000 0.000000 0.000000 0.000000 0.000000 0.000000 0.000000 13.675227 -14.844197 -3.671617 54.368367 54.848861 6.902207 -178.354160 62.983906 179.737053 -24.280883 11.778769 -2.784193 0.443575 -0.876091 -0.000000 0.000000 0.000000 0.000000 0.000000 0.000000 0.000000 
2.729118 16.801276 1.085577 -173.856016 -44.765511 -152.893664 4.233044 -7.005917 0.254126 1.051214 -7.210531 -2.378349 -4.709600 -7.231052 1.517362 18.442673 -14.842001 -6.984572 -1.046604 -0.076352 0.085469 0.000000 0.000000 0.000000 31.259003 -2.899693 4.120150 22.151720 -24.655743 -70.826331 0.930827 -0.756151 -0.142849 20.846423 -13.996103 -2.881176 -0.828398 0.987309 -0.000000 0.000000 0.000000 0.000000 0.000000 0.000000 0.000000 13.625248 -14.963309 -3.850925 54.299414 55.056142 6.881342 -178.351203 62.661936 179.739234 -24.091097 11.933364 -2.797159 0.442943 -0.880380 0.000000 0.000000 0.000000 0.000000 0.000000 0.000000 0.000000 
2.727101 16.793107 1.062148 -173.775021 -44.367759 -152.880354 4.185318 -6.952385 0.034794 1.015624 -7.162362 -2.312934 -4.809061 -7.160055 1.812788 18.090746 -14.910119 -7.046035 -1.141594 -0.081923 0.066694 0.000000 0.000000 0.000000 32.456556 -1.847824 3.802162 18.672282 -26.891057 -65.627627 0.860060 -7.604894 -0.175578 20.510061 -11.542792 -2.356982 -0.778786 0.957378 -0.000000 0.000000 0.000000 0.000000 0.000000 0.000000 0.000000 13.489353 -14.924963 -3.857329 54.229896 54.937124 6.854323 -178.403941 62.338806 179.740972 -23.864910 12.132788 -2.816390 0.445542 -0.890059 -0.000000 0.000000 0.000000 0.000000 0.000000 0.000000 0.000000 
2.727082 16.785073 1.036992 -173.718218 -43.912528 -152.878117 4.122715 -6.853509 -0.219238 0.952983 -7.072168 -2.320584 -4.971086 -7.057250 1.837096 17.671906 -14.869453 -6.830956 -1.261330 -0.094532 0.129802 0.000000 0.000000 0.000000 33.304419 -2.048379 3.422264 15.073779 -27.269580 -58.734143 0.721911 -15.295057 -0.201965 20.006414 -8.767987 -1.773200 -0.714456 0.910799 -0.000000 0.000000 0.000000 0.000000 0.000000 0.000000 0.000000 13.271021 -14.778202 -3.744691 54.248167 54.567360 6.865949 -178.490770 62.025313 179.742427 -23.614935 12.372215 -2.841605 0.449392 -0.903255 0.000000 0.000000 0.000000 0.000000 0.000000 0.000000 0.000000 
